<svg xmlns="http://www.w3.org/2000/svg" xmlns:xlink="http://www.w3.org/1999/xlink" width="141.861" height="105.659" viewBox="0 0 141.861 105.659"><defs><clipPath id="clip-path"><rect id="Rectangle_1" data-name="Rectangle 1" width="141.861" height="105.659" fill="#457c1f"/></clipPath></defs><g id="Group_3" data-name="Group 3" transform="translate(0 0)"><path id="Path_1" data-name="Path 1" d="M39.1,0,8.976,73.158,14.992,84.8h43.13L53,71.5H24.138L53.234,0Z" transform="translate(-5.32)" fill="#457c1f"/><path id="Path_2" data-name="Path 2" d="M158.512,0,135.235,63.181,117.776,14.963l-8.314,19.953L128.584,84.8h13.3l24.108-64.846L192.6,84.8h14.133L171.814,0Z" transform="translate(-64.873)" fill="#86a315"/><path id="Path_3" data-name="Path 3" d="M0,238.408v8.544H8.888v-1.61H2.1v-6.934Z" transform="translate(0 -141.293)" fill="#457c1f"/><g id="Group_2" data-name="Group 2" transform="translate(0 0)"><g id="Group_1" data-name="Group 1" clip-path="url(#clip-path)"><path id="Path_4" data-name="Path 4" d="M29.367,246.952v-8.545h1.7l4.268,5.171,4.168-5.171h1.686v8.545H39.243v-5.276c0-.1.008-.231.022-.39s.033-.334.055-.525c-.114.221-.215.4-.3.548s-.163.258-.23.351l-3.4,4.272h-.419l-3.411-4.29c-.125-.16-.232-.315-.321-.455a3.249,3.249,0,0,1-.218-.42c.017.179.031.343.04.487s.011.288.011.422v5.276Z" transform="translate(-17.404 -141.293)" fill="#457c1f"/><path id="Path_5" data-name="Path 5" d="M85.876,246.952v-8.545h1.706l4.267,5.171,4.167-5.171H97.7v8.545H95.755v-5.276c0-.1.007-.231.022-.39s.033-.334.055-.525c-.113.221-.213.4-.3.548s-.163.258-.232.351l-3.4,4.272h-.42l-3.409-4.29a5.385,5.385,0,0,1-.321-.455,2.924,2.924,0,0,1-.218-.42c.017.179.029.343.038.487s.013.288.013.422v5.276Z" transform="translate(-50.895 -141.293)" fill="#457c1f"/><path id="Path_6" data-name="Path 6" d="M125.764,246.952v-8.545h9.253v1.452h-7.153v1.908h4.185v1.449h-4.185v2.126h7.243v1.61Z" transform="translate(-74.535 -141.293)" fill="#457c1f"/><path id="Path_7" data-name="Path 7" d="M159.465,239.93v7.023h-2.1V239.93h-4.155v-1.522h10.427v1.522Z" transform="translate(-90.8 -141.293)" fill="#457c1f"/><path id="Path_8" data-name="Path 8" d="M177.975,246.953l5.122-8.545h2.029l5.192,8.545h-2.363l-1.088-1.868h-5.738l-1.055,1.868Zm4.05-3.4h3.968l-1.954-3.481Z" transform="translate(-105.477 -141.293)" fill="#457c1f"/><path id="Path_9" data-name="Path 9" d="M215.421,246.952v-8.545h2.1v6.935h6.787v1.61Z" transform="translate(-127.67 -141.293)" fill="#457c1f"/><path id="Path_10" data-name="Path 10" d="M244.826,246.952v-8.545h2.1v6.935h6.788v1.61Z" transform="translate(-145.097 -141.293)" fill="#457c1f"/><path id="Path_11" data-name="Path 11" d="M286.636,246.953l5.12-8.545h2.031l5.19,8.545h-2.363l-1.088-1.868h-5.739l-1.053,1.868Zm4.05-3.4h3.966l-1.951-3.481Z" transform="translate(-169.876 -141.293)" fill="#457c1f"/><path id="Path_12" data-name="Path 12" d="M324.076,246.952v-8.545h7.74a2.441,2.441,0,0,1,1.551.395,1.541,1.541,0,0,1,.481,1.26V241.1a1.27,1.27,0,0,1-.4.983,2.025,2.025,0,0,1-1.154.453,1.987,1.987,0,0,1,1.209.527,1.538,1.538,0,0,1,.426,1.119v1.094a1.386,1.386,0,0,1-.664,1.263,3.887,3.887,0,0,1-2.011.412Zm6.86-7.154h-4.792v2.026h4.792a1.469,1.469,0,0,0,.752-.136.515.515,0,0,0,.211-.476v-.8a.517.517,0,0,0-.211-.469,1.419,1.419,0,0,0-.752-.143m0,3.436h-4.792v2.181h4.792a1.365,1.365,0,0,0,.813-.17.738.738,0,0,0,.211-.6v-.649a.731.731,0,0,0-.211-.6,1.435,1.435,0,0,0-.813-.163" transform="translate(-192.065 -141.293)" fill="#457c1f"/></g></g></g></svg>