<svg xmlns="http://www.w3.org/2000/svg" id="Lager_1" viewBox="0 0 578.05 109.91"><defs><style>.cls-1{fill:#5f249f;}</style></defs><path class="cls-1" d="M457.63,62.99c0,26.49,23.63,46.92,46.91,46.92h35.46c3.25,0,7.01-1.76,10.52-5.26l27.53-27.52v-30.2c0-26.49-23.63-46.91-46.92-46.91h-40.72l-27.52,27.52c-3.5,3.5-5.26,7.27-5.26,10.52v24.94ZM551.49,83.35c0,2.89-2.37,5.26-5.26,5.26h-28.83c-24.33,0-33.22-12.68-33.22-33.22v-28.83c0-2.89,2.37-5.26,5.26-5.26h28.82c24.34,0,33.23,12.67,33.23,33.22v28.83Z"/><path class="cls-1" d="M292.76,0l-27.52,27.52c-3.5,3.5-5.26,7.27-5.26,10.52v71.86h26.55V26.56c0-2.89,2.37-5.26,5.26-5.26h15.72c24.33,0,33.22,12.68,33.22,33.22v55.38h26.56V26.56c0-2.89,2.36-5.26,5.26-5.26h15.72c24.33,0,33.21,12.68,33.21,33.22v55.38h26.56v-62.98c0-26.49-23.63-46.92-46.91-46.92h-22.36l-20.3,20.29c-8.97-12.37-23.6-20.29-38.1-20.29h-27.62Z"/><path class="cls-1" d="M130.01,62.99c0,26.49,23.63,46.92,46.91,46.92h35.46c3.25,0,7.02-1.76,10.52-5.26l27.53-27.52v-30.2C250.43,20.43,226.8,0,203.52,0h-40.73l-27.52,27.52c-3.5,3.5-5.26,7.27-5.26,10.52v24.94ZM223.87,83.35c0,2.89-2.37,5.26-5.26,5.26h-28.83c-24.33,0-33.22-12.68-33.22-33.22v-28.83c0-2.89,2.37-5.26,5.26-5.26h28.83c24.33,0,33.22,12.67,33.22,33.22v28.83Z"/><path class="cls-1" d="M0,109.9h26.55V26.56c0-2.89,2.37-5.26,5.26-5.26h28.83c24.33,0,33.22,12.67,33.22,33.22v55.39h26.55v-62.99C120.42,20.43,96.79,0,73.51,0h-40.73L5.26,27.52c-3.5,3.5-5.26,7.27-5.26,10.52v71.86Z"/></svg>